<?xml version="1.0" encoding="utf-8"?>
<!-- Generator: Adobe Illustrator 25.2.1, SVG Export Plug-In . SVG Version: 6.00 Build 0)  -->
<svg version="1.1" id="Capa_1" xmlns="http://www.w3.org/2000/svg" xmlns:xlink="http://www.w3.org/1999/xlink" x="0px" y="0px"
	 viewBox="0 0 50 50" style="enable-background:new 0 0 50 50;" xml:space="preserve">
<style type="text/css">
	.st0{fill:#00A98E;}
	.st1{opacity:0.13;enable-background:new    ;}
	.st2{fill:#FFFFFF;}
</style>
<circle class="st0" cx="25.2" cy="25.1" r="24.9"/>
<path class="st1" d="M39.9,4.8C4.2,3.2,3,36.1,3,36.3C1.3,32.9,0.3,29,0.3,24.9C0.3,11.2,11.5,0,25.2,0C30.7,0,35.8,1.8,39.9,4.8z"
	/>
<rect x="11.3" y="11.8" class="st2" width="8.5" height="28"/>
<rect x="21.3" y="11.8" class="st2" width="8.5" height="28"/>
<rect x="31.2" y="11.8" class="st2" width="8.5" height="28"/>
<rect x="12.4" y="14.1" class="st0" width="6.3" height="1.2"/>
<rect x="22.4" y="14.1" class="st0" width="6.3" height="1.2"/>
<rect x="32.3" y="14.1" class="st0" width="6.3" height="1.2"/>
<rect x="12.4" y="37.2" class="st0" width="6.3" height="1.2"/>
<rect x="22.4" y="37.2" class="st0" width="6.3" height="1.2"/>
<rect x="32.3" y="37.2" class="st0" width="6.3" height="1.2"/>
<rect x="12.4" y="35" class="st0" width="6.3" height="1.2"/>
<rect x="22.4" y="35" class="st0" width="6.3" height="1.2"/>
<rect x="32.3" y="35" class="st0" width="6.3" height="1.2"/>
</svg>
