<?xml version="1.0" encoding="utf-8"?>
<!-- Generator: Adobe Illustrator 25.2.1, SVG Export Plug-In . SVG Version: 6.00 Build 0)  -->
<svg version="1.1" id="Capa_1" xmlns="http://www.w3.org/2000/svg" xmlns:xlink="http://www.w3.org/1999/xlink" x="0px" y="0px"
	 viewBox="0 0 50 50" style="enable-background:new 0 0 50 50;" xml:space="preserve">
<style type="text/css">
	.st0{fill:#00A98E;}
	.st1{opacity:0.13;enable-background:new    ;}
	.st2{fill:#FFFFFF;}
	.st3{fill:#009D8E;}
</style>
<circle class="st0" cx="25.1" cy="25" r="25"/>
<path class="st1" d="M39.9,4.8c-35.8-1.6-37,31.3-37,31.6C1.2,33,0.2,29.1,0.2,25c0-13.8,11.2-25,25-25C30.6,0,35.7,1.8,39.9,4.8z"
	/>
<path class="st2" d="M28.2,37.2h-6.6c-5.2,0-9.5-4.2-9.5-9.5v-4.8c0-5.2,4.2-9.5,9.5-9.5h6.6c5.2,0,9.5,4.2,9.5,9.5v4.8
	C37.7,32.9,33.4,37.2,28.2,37.2z"/>
<rect x="12.1" y="20" class="st3" width="25.6" height="10.5"/>
<circle class="st2" cx="24.9" cy="25.3" r="7.9"/>
<circle class="st3" cx="24.9" cy="25.3" r="6.6"/>
<circle class="st2" cx="24.9" cy="25.3" r="5.7"/>
<circle class="st3" cx="24.9" cy="25.3" r="3.5"/>
<circle class="st2" cx="23.5" cy="23.2" r="0.9"/>
<circle class="st2" cx="22.7" cy="24.9" r="0.6"/>
<circle class="st2" cx="26.6" cy="26.5" r="1.2"/>
<path class="st3" d="M18.1,18.2H15c-0.5,0-0.9-0.4-0.9-0.9l0,0c0-0.5,0.4-0.9,0.9-0.9h3.1c0.5,0,0.9,0.4,0.9,0.9l0,0
	C19,17.8,18.6,18.2,18.1,18.2z"/>
</svg>
