<?xml version="1.0" encoding="utf-8"?>
<!-- Generator: Adobe Illustrator 25.2.1, SVG Export Plug-In . SVG Version: 6.00 Build 0)  -->
<svg version="1.1" id="Capa_1" xmlns="http://www.w3.org/2000/svg" xmlns:xlink="http://www.w3.org/1999/xlink" x="0px" y="0px"
	 viewBox="0 0 50 50" style="enable-background:new 0 0 50 50;" xml:space="preserve">
<style type="text/css">
	.st0{fill:#007BBC;}
	.st1{fill:#FFFFFF;}
</style>
<g>
	<g>
		<g>
			<path class="st0" d="M25,50C11.21,50,0,38.79,0,25C0,11.21,11.21,0,25,0c13.79,0,25,11.21,25,25C50,38.79,38.79,50,25,50z"/>
		</g>
		<g>
			<g>
				<path class="st1" d="M39.13,26.9v9.33c0,0.23-0.19,0.42-0.42,0.42H33.9c-0.23,0-0.42-0.19-0.42-0.42v-8.68
					c0-2.28-0.82-3.84-2.86-3.84c-1.56,0-2.49,1.05-2.9,2.07c-0.15,0.36-0.19,0.87-0.19,1.38v9.08c0,0.23-0.19,0.42-0.42,0.42h-4.82
					c-0.23,0-0.42-0.19-0.42-0.42c0.01-2.31,0.06-13.53,0.01-16.17c0-0.23,0.18-0.42,0.42-0.42h4.81c0.23,0,0.42,0.19,0.42,0.42
					v1.99c-0.01,0.02-0.03,0.04-0.04,0.06h0.04v-0.06c0.75-1.16,2.09-2.81,5.1-2.81C36.34,19.25,39.13,21.68,39.13,26.9L39.13,26.9z
					 M13.51,36.66h4.82c0.23,0,0.42-0.19,0.42-0.42V20.07c0-0.23-0.19-0.42-0.42-0.42h-4.82c-0.23,0-0.42,0.19-0.42,0.42v16.17
					C13.1,36.47,13.28,36.66,13.51,36.66z"/>
			</g>
		</g>
	</g>
	<g>
		<circle class="st1" cx="15.75" cy="14.46" r="3.03"/>
	</g>
</g>
</svg>
