<?xml version="1.0" encoding="utf-8"?>
<!-- Generator: Adobe Illustrator 25.2.1, SVG Export Plug-In . SVG Version: 6.00 Build 0)  -->
<svg version="1.1" id="Capa_1" xmlns="http://www.w3.org/2000/svg" xmlns:xlink="http://www.w3.org/1999/xlink" x="0px" y="0px"
	 viewBox="0 0 50 50" style="enable-background:new 0 0 50 50;" xml:space="preserve">
<style type="text/css">
	.st0{fill:#312C30;}
	.st1{fill:#FFFFFF;}
</style>
<g>
	<g>
		<g>
			<path class="st0" d="M24.99,50C11.21,50,0,38.79,0,25.01C0,11.23,11.21,0.02,24.99,0.02c13.78,0,24.99,11.21,24.99,24.99
				C49.98,38.79,38.77,50,24.99,50z"/>
		</g>
	</g>
	<g>
		<g>
			<path class="st1" d="M34.47,20.9c-6.83,0-6.84,6.8-6.84,6.84c0,0-0.47,6.81,6.84,6.81c0,0,5.5,0.31,6.05-4.02
				c0.05-0.38-0.25-0.72-0.63-0.72h-1.91c-0.28,0-0.53,0.18-0.61,0.44c-0.17,0.57-0.75,1.47-2.79,1.47c0,0-2.65,0.18-3.07-2.37
				c-0.06-0.38,0.24-0.73,0.63-0.73h7.94c0.34,0,0.63-0.27,0.64-0.61C40.77,26.19,40.44,20.9,34.47,20.9z M31.89,26.25
				c-0.25,0-0.43-0.24-0.35-0.49c0.25-0.79,1-2.25,3.01-2.25c2.07,0,2.56,1.55,2.68,2.32c0.03,0.22-0.14,0.42-0.37,0.42H31.89z
				 M23.69,24.66c-0.22-0.07-0.26-0.38-0.05-0.49c0.76-0.39,1.66-1.23,1.66-3.07c0-3.18-2.22-4.74-5.04-4.74h-8.8
				c-0.26,0-0.47,0.21-0.47,0.47v16.87c0,0.26,0.21,0.47,0.47,0.47h8.8c0,0,5.66,0.17,5.66-5.26
				C25.92,28.92,26.11,25.46,23.69,24.66z M15.08,19.87c0-0.19,0.15-0.34,0.34-0.34h4.84c0,0,1.26,0,1.26,1.85
				c0,1.85-0.74,2.12-1.58,2.12h-4.52c-0.19,0-0.34-0.15-0.34-0.34V19.87z M20.01,31.01h-4.58c-0.19,0-0.34-0.15-0.34-0.34v-4.09
				c0-0.19,0.15-0.34,0.34-0.34h4.84c0,0,1.88-0.02,1.87,2.45C22.14,30.78,20.74,31,20.01,31.01z M30.64,17.08v1.52
				c0,0.18,0.15,0.33,0.33,0.33h6.68c0.18,0,0.33-0.15,0.33-0.33v-1.52c0-0.18-0.15-0.33-0.33-0.33h-6.68
				C30.79,16.74,30.64,16.89,30.64,17.08z"/>
		</g>
	</g>
</g>
</svg>
