<?xml version="1.0" encoding="utf-8"?>
<!-- Generator: Adobe Illustrator 25.2.1, SVG Export Plug-In . SVG Version: 6.00 Build 0)  -->
<svg version="1.1" id="Capa_1" xmlns="http://www.w3.org/2000/svg" xmlns:xlink="http://www.w3.org/1999/xlink" x="0px" y="0px"
	 viewBox="0 0 50 50" style="enable-background:new 0 0 50 50;" xml:space="preserve">
<style type="text/css">
	.st0{fill:#FFFFFF;}
	.st1{fill:url(#SVGID_1_);}
</style>
<g>
	<circle class="st0" cx="24.98" cy="24.79" r="21.9"/>
	<linearGradient id="SVGID_1_" gradientUnits="userSpaceOnUse" x1="4.8" y1="42.2001" x2="66.8246" y2="-10.6132">
		<stop  offset="1.104800e-03" style="stop-color:#FFE185"/>
		<stop  offset="0.2094" style="stop-color:#FFBB36"/>
		<stop  offset="0.3765" style="stop-color:#FF5176"/>
		<stop  offset="0.5238" style="stop-color:#F63395"/>
		<stop  offset="0.7394" style="stop-color:#A436D2"/>
		<stop  offset="1" style="stop-color:#5F4EED"/>
	</linearGradient>
	<path class="st1" d="M25,50C11.22,50,0,38.78,0,25C0,11.22,11.22,0,25,0s25,11.22,25,25C50,38.78,38.78,50,25,50z M33.43,14.86
		c-1.02,0-1.85,0.83-1.85,1.85c0,1.02,0.83,1.85,1.85,1.85c1.02,0,1.85-0.83,1.85-1.85C35.28,15.69,34.45,14.86,33.43,14.86z
		 M25.21,17.23c-4.28,0-7.77,3.49-7.77,7.77s3.49,7.77,7.77,7.77c4.28,0,7.77-3.49,7.77-7.77S29.49,17.23,25.21,17.23z M25.21,29.98
		c-2.74,0-4.98-2.23-4.98-4.98s2.23-4.98,4.98-4.98c2.74,0,4.98,2.23,4.98,4.98S27.95,29.98,25.21,29.98z M40.89,18.54
		c0-5.23-4.24-9.48-9.48-9.48H18.9c-5.23,0-9.48,4.24-9.48,9.48v12.51c0,5.23,4.24,9.48,9.48,9.48h12.51c5.23,0,9.48-4.24,9.48-9.48
		V18.54z M37.92,31.05c0,3.6-2.91,6.51-6.51,6.51H18.9c-3.6,0-6.51-2.91-6.51-6.51V18.54c0-3.6,2.91-6.51,6.51-6.51h12.51
		c3.6,0,6.51,2.91,6.51,6.51V31.05z"/>
</g>
</svg>
