<?xml version="1.0" encoding="utf-8"?>
<!-- Generator: Adobe Illustrator 25.2.1, SVG Export Plug-In . SVG Version: 6.00 Build 0)  -->
<svg version="1.1" id="Capa_1" xmlns="http://www.w3.org/2000/svg" xmlns:xlink="http://www.w3.org/1999/xlink" x="0px" y="0px"
	 viewBox="0 0 50 50" style="enable-background:new 0 0 50 50;" xml:space="preserve">
<style type="text/css">
	.st0{fill:#00A98E;}
	.st1{opacity:0.13;enable-background:new    ;}
	.st2{fill:#FFFFFF;}
</style>
<circle class="st0" cx="25.1" cy="25.2" r="24.9"/>
<path class="st1" d="M39.8,5.1C4.2,3.6,3,36.3,3,36.6c-1.8-3.4-2.7-7.2-2.7-11.3c0-13.7,11.1-24.9,24.9-24.9
	C30.6,0.4,35.7,2.1,39.8,5.1z"/>
<path class="st2" d="M17.5,19.9c0.8-0.8,1.6-1.5,2.4-2.3c0.2,0.2,8.5,8.5,12.5,12.4c0.3,0.3,0.5,0.5,0.8,0.9c0.5,0.7,0.4,1.4-0.2,2
	c-0.6,0.6-1.3,0.7-2,0.3c-0.2-0.1-0.5-0.3-0.7-0.5C26.1,28.5,17.6,20,17.5,19.9z"/>
<path class="st2" d="M21,13.7c0,0-4.8,4.8-7.3,7.2c-0.5-0.6-1.1-1.1-1.6-1.8c-0.8-1.2-0.6-2.8,0.5-3.9c0.7-0.8,1.4-1.5,2.2-2.2
	c1.7-1.6,3.6-1.7,5.3-0.1C20.5,13.1,21,13.7,21,13.7z"/>
<path class="st2" d="M15.1,22.2c0,0,0.8-0.8,1.1-1.2c0.3,0.3,0.6,0.6,0.8,0.8c3.9,3.9,7.8,7.8,11.7,11.7c0.2,0.2,0.6,0.6,0.7,0.8
	c0.1,0.3,0,0.6-0.2,0.9c-0.2,0.2-0.5,0.3-0.8,0.2c-0.2,0-0.5-0.4-0.7-0.5c-4.1-4.1-8.2-8.2-12.3-12.3C15.4,22.5,15.1,22.2,15.1,22.2
	z"/>
<path class="st2" d="M21,16.4c0,0,0.8-0.8,1.1-1.2c0.3,0.3,0.6,0.6,0.8,0.8c3.9,3.9,7.8,7.8,11.7,11.7c0.2,0.2,0.6,0.6,0.7,0.8
	c0.1,0.3,0,0.6-0.2,0.9c-0.2,0.2-0.5,0.3-0.8,0.2c-0.2,0-0.5-0.4-0.7-0.5c-4.1-4.1-8.2-8.2-12.3-12.3C21.2,16.6,21,16.4,21,16.4z"/>
<path class="st2" d="M30.6,36.6c0.3-1.1,0.8-1.5,1.9-1.7c1.4-0.2,2.2-1.2,2.5-2.9c0.1-0.5,0.4-0.9,0.9-1.1c0.2-0.1,0.5-0.2,0.7-0.3
	c0.7,2.7,1.3,5.2,2,8C35.8,37.9,33.2,37.3,30.6,36.6z"/>
</svg>
